<svg width="70" height="73" viewBox="0 0 70 73" fill="none" xmlns="http://www.w3.org/2000/svg">
<g id="Calque_4" clip-path="url(#clip0_57_77)">
<path id="Vector" d="M68.5809 17.5125C65.4836 14.254 61.4926 14.879 58.4318 17.334C55.3711 19.789 39.5346 34.8205 37.3129 36.3531C37.4552 36.022 37.6777 35.6165 38.017 35.1069C39.7426 32.518 43.7847 27.8943 47.3343 23.2819C50.7489 18.8442 53.6528 12.3198 54.1964 8.01603C54.7399 3.71229 49.9974 0.0111391 47.0461 -2.011e-05C43.066 -0.0148991 39.8228 4.03218 38.1045 4.21073C36.3863 4.38928 33.5225 2.94602 28.7362 4.21073C24.3876 5.36013 24.4752 10.7798 24.8181 13.3539C25.1866 16.1176 30.21 25.3872 31.5379 27.9353C32.8659 30.487 34.0953 35.1069 34.0953 35.1069C33.5845 34.735 29.0317 29.1219 28.054 27.1578C27.3499 25.7406 23.1509 14.3991 19.7874 11.4159C16.4202 8.43264 12.9618 9.63412 10.4956 12.0334C9.42673 13.0749 6.89859 17.2894 4.40328 18.9446C2.26913 20.3581 1.76934 23.7134 2.6157 26.492C3.82323 30.4647 17.2264 32.7523 20.3711 33.3177C23.005 33.7901 30.0203 35.7616 32.2384 36.3902C29.3308 36.5762 21.5895 36.6134 12.1555 34.5601C4.5492 32.9086 0.211597 39.7938 0.0218952 43.2011C-0.262658 48.3381 2.22536 49.878 4.10049 58.2772C4.61487 60.5872 5.2387 68.1011 12.918 67.0595C20.5973 66.018 25.3872 53.3895 26.8975 49.7627C28.0941 46.8985 32.1946 40.9507 33.8618 38.5812C33.0154 41.5979 30.1918 51.5185 29.0135 53.8619C27.6162 56.6331 24.9823 63.5927 25.4456 66.5165C25.9126 69.4402 28.6231 73.7811 35.6056 72.8772C42.5881 71.9733 43.2922 70.1655 47.3926 69.4439C49.6946 69.0385 57.1477 68.8339 59.6722 64.0763C60.8651 61.8296 61.3503 55.4279 55.9219 51.8123C54.211 50.6703 38.5496 42.1335 36.9955 38.2055C36.9955 38.2055 36.9955 38.2055 36.9955 38.198C39.4434 38.9569 45.3679 40.8688 47.0607 42.0629C49.2167 43.5805 56.0022 48.7658 57.8372 49.0857C59.6722 49.4056 63.8675 50.0306 66.8371 46.7349C69.8067 43.4392 69.544 39.0424 69.285 36.0443C68.5079 27.1281 71.7547 20.8492 68.5845 17.5125H68.5809Z" fill="black"/>
</g>
<defs>
<clipPath id="clip0_57_77">
<rect width="70" height="73" fill="white"/>
</clipPath>
</defs>
</svg>
