<svg width="51" height="72" viewBox="0 0 51 72" fill="none" xmlns="http://www.w3.org/2000/svg">
<g id="Calque_3" clip-path="url(#clip0_57_71)">
<path id="Vector" d="M25.4928 0C25.4928 0 0 32.3957 0 46.4958C0 60.5959 11.4134 72 25.4928 72C39.5722 72 50.9856 60.5815 50.9856 46.4958C50.9856 32.4101 25.4928 0 25.4928 0ZM23.9797 68.4678C17.221 69.0733 5.82198 62.0088 4.85646 47.8078C3.87652 33.6067 15.6646 22.1594 15.6646 22.1594C21.1263 16.7241 23.1726 23.6588 21.3136 32.3092C20.5643 35.8126 17.0769 38.1482 19.6852 41.3777C20.9101 42.8915 25.6513 45.1694 22.3945 49.8406C19.5699 53.8775 20.8525 56.833 21.5298 58.4045C22.3801 60.3652 23.9508 64.1858 28.4614 65.6276C30.5798 66.3052 28.1732 68.0929 23.9652 68.4678H23.9797Z" fill="black"/>
</g>
<defs>
<clipPath id="clip0_57_71">
<rect width="51" height="72" fill="white"/>
</clipPath>
</defs>
</svg>
