<svg width="80" height="72" viewBox="0 0 80 72" fill="none" xmlns="http://www.w3.org/2000/svg">
<g id="Calque_3" clip-path="url(#clip0_57_73)">
<path id="Vector" d="M40.0001 0C26.2714 0 15.1353 11.2193 15.1353 25.0504C15.1353 38.8815 25.7256 45.9874 40.0001 72C54.2746 45.9874 64.865 38.8921 64.865 25.0504C64.865 11.2087 53.7393 0 40.0001 0ZM40.0001 35.0219C33.902 35.0219 28.9584 30.0414 28.9584 23.8978C28.9584 17.7542 33.902 12.7737 40.0001 12.7737C46.0983 12.7737 51.0418 17.7542 51.0418 23.8978C51.0418 30.0414 46.0983 35.0219 40.0001 35.0219Z" fill="black"/>
<path id="Vector_2" d="M35.9801 72C35.9801 72 25.1588 49.9316 18.2314 44.9088C13.5293 41.5039 7.96641 38.9449 0 39.8014C0 39.8014 3.02283 41.4299 5.60483 43.6822C7.65154 45.4692 9.0265 47.9013 9.53031 50.5872C10.7373 56.9952 12.1753 60.9605 17.99 65.2536C23.4479 69.2824 28.9583 68.4259 35.9801 72.0106V72Z" fill="black"/>
<path id="Vector_3" d="M44.02 72C44.02 72 54.8413 49.9316 61.7686 44.9088C66.4708 41.5039 72.0337 38.9449 80.0001 39.8014C80.0001 39.8014 76.9772 41.4299 74.3952 43.6822C72.3485 45.4692 70.9736 47.9013 70.4698 50.5872C69.2627 56.9952 67.8248 60.9605 62.0101 65.2536C56.5522 69.2824 51.0418 68.4259 44.02 72.0106V72Z" fill="black"/>
</g>
<defs>
<clipPath id="clip0_57_73">
<rect width="80" height="72" fill="white"/>
</clipPath>
</defs>
</svg>
