<svg width="82" height="16" viewBox="0 0 82 16" fill="none" xmlns="http://www.w3.org/2000/svg">
<g id="Mode_Isolation" clip-path="url(#clip0_7_298)">
<path id="Vector" d="M0 15.553V0.447021H2.97761V12.8135H8.13443V15.5551H0V15.553Z" fill="black"/>
<path id="Vector_2" d="M10.6318 15.553V0.447021H13.6094V15.5551H10.6318V15.553Z" fill="black"/>
<path id="Vector_3" d="M16.427 8.01128C16.427 3.08189 18.8839 0 22.8219 0C25.9403 0 28.1581 2.14687 28.6364 5.65116L25.8786 6.20274C25.5392 4.03537 24.4207 2.73946 22.8219 2.73946C20.7237 2.73946 19.4046 4.73664 19.4046 8.00923C19.4046 11.2818 20.8838 13.2359 23.2423 13.2359C25.14 13.2359 26.5594 11.7063 26.8988 9.19851L29.697 9.68653C29.2381 13.5538 26.7194 15.998 23.2231 15.998C19.0266 15.998 16.4289 12.9161 16.4289 8.00923L16.427 8.01128Z" fill="black"/>
<path id="Vector_4" d="M31.232 5.42962C31.232 3.97992 32.2214 2.94032 33.5617 2.94032C34.902 2.94032 35.8913 3.97992 35.8913 5.42962C35.8913 6.87932 34.9135 7.89431 33.5617 7.89431C32.2098 7.89431 31.2205 6.85471 31.232 5.42962ZM34.8673 5.42962C34.8673 4.62377 34.3196 4.02913 33.5732 4.02913C32.8269 4.02913 32.2561 4.62377 32.2561 5.42962C32.2561 6.23546 32.8153 6.80345 33.5732 6.80345C34.3311 6.80345 34.8673 6.23341 34.8673 5.42962ZM33.7487 12.1921L33.3881 11.9194L39.4108 2.83984L39.7946 3.11256L33.7487 12.1921ZM37.1738 9.76436C37.1853 8.31466 38.1631 7.27506 39.5034 7.27506C40.8437 7.27506 41.833 8.31466 41.833 9.76436C41.833 11.2141 40.8553 12.2291 39.5034 12.2291C38.1515 12.2291 37.1738 11.1895 37.1738 9.76436ZM40.809 9.76436C40.809 8.95851 40.2613 8.36387 39.515 8.36387C38.7686 8.36387 38.1978 8.95851 38.1978 9.76436C38.1978 10.5702 38.7455 11.1382 39.515 11.1382C40.2844 11.1382 40.809 10.5682 40.809 9.76436Z" fill="black"/>
<path id="Vector_5" d="M51.0243 13.7465L50.4052 11.1547C50.1854 10.2627 49.6068 9.62503 48.847 9.62503H47.0689V15.553H44.0913V0.447021H49.9057C53.0627 0.447021 55.0626 2.25351 55.0626 5.09959C55.0626 7.0127 53.944 8.58338 52.0252 9.07345V9.09395C52.7638 9.43433 53.1244 10.0925 53.325 10.964L53.784 12.9612C53.8843 13.4492 54.0829 13.7691 54.4435 13.7691C54.7232 13.7691 55.024 13.5558 55.3036 13.1519L56.0422 14.7021C55.402 15.4669 54.4435 15.9139 53.4638 15.9139C52.1447 15.9139 51.3251 15.0424 51.0262 13.7465H51.0243ZM47.067 7.37359H49.6647C51.1226 7.37359 52.083 6.50213 52.083 5.14265C52.083 3.78317 51.1246 2.86865 49.6647 2.86865H47.067V7.37359Z" fill="black"/>
<path id="Vector_6" d="M58.3179 15.553V0.447021H61.9955L67.0714 11.7719H67.1119V0.447021H69.9101V15.5551H66.2132L61.1373 4.27324H61.0968V15.5551H58.3198L58.3179 15.553Z" fill="black"/>
<path id="Vector_7" d="M73.1655 15.553V0.447021H81.7994V3.03885H76.0448V6.65181H81.001V8.94632H76.0448V12.9837H82V15.5551H73.1675L73.1655 15.553Z" fill="black"/>
</g>
<defs>
<clipPath id="clip0_7_298">
<rect width="82" height="16" fill="white"/>
</clipPath>
</defs>
</svg>
