<svg width="193" height="36" viewBox="0 0 193 36" fill="none" xmlns="http://www.w3.org/2000/svg">
<g clip-path="url(#clip0_57_28)">
<path d="M0 34.9942V1.00574H7.00828V28.8304H19.1457V34.9988H0V34.9942Z" fill="white"/>
<path d="M25.0239 34.9942V1.00574H32.0322V34.9988H25.0239V34.9942Z" fill="white"/>
<path d="M38.6636 18.0254C38.6636 6.93426 44.4463 0 53.715 0C61.0547 0 66.2746 4.83045 67.4002 12.7151L60.9094 13.9562C60.1105 9.07959 57.4779 6.16378 53.715 6.16378C48.7766 6.16378 45.6719 10.6574 45.6719 18.0208C45.6719 25.3841 49.1533 29.7809 54.7045 29.7809C59.171 29.7809 62.5117 26.3391 63.3106 20.6967L69.8967 21.7947C68.8164 30.496 62.8884 35.9954 54.6592 35.9954C44.7822 35.9954 38.6681 29.0611 38.6681 18.0208L38.6636 18.0254Z" fill="white"/>
<path d="M73.5095 12.2169C73.5095 8.95506 75.838 6.61596 78.9927 6.61596C82.1473 6.61596 84.4758 8.95506 84.4758 12.2169C84.4758 15.4787 82.1745 17.7624 78.9927 17.7624C75.8108 17.7624 73.4823 15.4233 73.5095 12.2169ZM82.0656 12.2169C82.0656 10.4037 80.7765 9.06579 79.0199 9.06579C77.2633 9.06579 75.9197 10.4037 75.9197 12.2169C75.9197 14.03 77.2361 15.308 79.0199 15.308C80.8038 15.308 82.0656 14.0254 82.0656 12.2169ZM79.433 27.4326L78.5842 26.819L92.7596 6.38989L93.6629 7.0035L79.433 27.4326ZM87.4943 21.9701C87.5215 18.7082 89.8228 16.3691 92.9775 16.3691C96.1321 16.3691 98.4606 18.7082 98.4606 21.9701C98.4606 25.2319 96.1593 27.5156 92.9775 27.5156C89.7956 27.5156 87.4943 25.1765 87.4943 21.9701ZM96.0504 21.9701C96.0504 20.1569 94.7613 18.819 93.0047 18.819C91.2481 18.819 89.9045 20.1569 89.9045 21.9701C89.9045 23.7832 91.1936 25.0612 93.0047 25.0612C94.8158 25.0612 96.0504 23.7786 96.0504 21.9701Z" fill="white"/>
<path d="M120.094 30.9296L118.637 25.098C118.119 23.0911 116.758 21.6563 114.969 21.6563H110.784V34.9942H103.776V1.00574H117.461C124.891 1.00574 129.598 5.07033 129.598 11.474C129.598 15.7785 126.966 19.3125 122.449 20.4152V20.4613C124.188 21.2272 125.037 22.7082 125.509 24.6689L126.589 29.1626C126.825 30.2606 127.293 30.9804 128.141 30.9804C128.8 30.9804 129.508 30.5005 130.166 29.5917L131.904 33.0796C130.397 34.8004 128.141 35.8062 125.836 35.8062C122.731 35.8062 120.802 33.8454 120.098 30.9296H120.094ZM110.78 16.5905H116.894C120.325 16.5905 122.586 14.6297 122.586 11.5709C122.586 8.51208 120.33 6.45441 116.894 6.45441H110.78V16.5905Z" fill="white"/>
<path d="M137.261 34.9942V1.00574H145.917L157.863 26.4867H157.959V1.00574H164.545V34.9988H155.844L143.897 9.61473H143.802V34.9988H137.265L137.261 34.9942Z" fill="white"/>
<path d="M172.207 34.9942V1.00574H192.528V6.83734H178.983V14.9665H190.649V20.1292H178.983V29.2134H193V34.9988H172.211L172.207 34.9942Z" fill="white"/>
</g>
<defs>
<clipPath id="clip0_57_28">
<rect width="193" height="36" fill="white"/>
</clipPath>
</defs>
</svg>
