<svg width="28" height="24" viewBox="0 0 28 24" fill="none" xmlns="http://www.w3.org/2000/svg">
<g clip-path="url(#clip0_57_24)">
<path d="M12.3132 1.64596C12.6097 1.09284 12.3861 0.413148 11.8174 0.127211C11.2486 -0.158727 10.5389 0.0568981 10.2424 0.605336L5.71667 9.00065H1.55556C0.695139 9.00065 0 9.67096 0 10.5006C0 11.3303 0.695139 12.0006 1.55556 12.0006L4.07847 21.7272C4.42361 23.0631 5.66806 24.0006 7.09722 24.0006H20.9028C22.3319 24.0006 23.5764 23.0631 23.9215 21.7272L26.4444 12.0006C27.3049 12.0006 28 11.3303 28 10.5006C28 9.67096 27.3049 9.00065 26.4444 9.00065H22.2833L17.7576 0.605336C17.4611 0.0568981 16.7562 -0.158727 16.1826 0.127211C15.609 0.413148 15.3903 1.09284 15.6868 1.64596L19.6535 9.00065H8.34653L12.3132 1.64596ZM9.33333 14.2506V18.7506C9.33333 19.1631 8.98333 19.5006 8.55556 19.5006C8.12778 19.5006 7.77778 19.1631 7.77778 18.7506V14.2506C7.77778 13.8381 8.12778 13.5006 8.55556 13.5006C8.98333 13.5006 9.33333 13.8381 9.33333 14.2506ZM14 13.5006C14.4278 13.5006 14.7778 13.8381 14.7778 14.2506V18.7506C14.7778 19.1631 14.4278 19.5006 14 19.5006C13.5722 19.5006 13.2222 19.1631 13.2222 18.7506V14.2506C13.2222 13.8381 13.5722 13.5006 14 13.5006ZM20.2222 14.2506V18.7506C20.2222 19.1631 19.8722 19.5006 19.4444 19.5006C19.0167 19.5006 18.6667 19.1631 18.6667 18.7506V14.2506C18.6667 13.8381 19.0167 13.5006 19.4444 13.5006C19.8722 13.5006 20.2222 13.8381 20.2222 14.2506Z" fill="white"/>
</g>
<defs>
<clipPath id="clip0_57_24">
<rect width="28" height="24" fill="white"/>
</clipPath>
</defs>
</svg>
