<svg width="19" height="18" viewBox="0 0 19 18" fill="none" xmlns="http://www.w3.org/2000/svg">
<path d="M8.35538 2.07992C8.5566 1.68813 8.40486 1.20668 8.01892 1.00414C7.63299 0.8016 7.15139 0.954335 6.95017 1.34281L3.87917 7.28951H1.05556C0.471701 7.28951 0 7.76432 0 8.35202C0 8.93971 0.471701 9.41452 1.05556 9.41452L2.76753 16.3042C3.00174 17.2505 3.84618 17.9146 4.81597 17.9146H14.184C15.1538 17.9146 15.9983 17.2505 16.2325 16.3042L17.9444 9.41452C18.5283 9.41452 19 8.93971 19 8.35202C19 7.76432 18.5283 7.28951 17.9444 7.28951H15.1208L12.0498 1.34281C11.8486 0.954335 11.3703 0.8016 10.9811 1.00414C10.5918 1.20668 10.4434 1.68813 10.6446 2.07992L13.3363 7.28951H5.66372L8.35538 2.07992ZM6.33333 11.0083V14.1958C6.33333 14.488 6.09583 14.727 5.80556 14.727C5.51528 14.727 5.27778 14.488 5.27778 14.1958V11.0083C5.27778 10.7161 5.51528 10.477 5.80556 10.477C6.09583 10.477 6.33333 10.7161 6.33333 11.0083ZM9.5 10.477C9.79028 10.477 10.0278 10.7161 10.0278 11.0083V14.1958C10.0278 14.488 9.79028 14.727 9.5 14.727C9.20972 14.727 8.97222 14.488 8.97222 14.1958V11.0083C8.97222 10.7161 9.20972 10.477 9.5 10.477ZM13.7222 11.0083V14.1958C13.7222 14.488 13.4847 14.727 13.1944 14.727C12.9042 14.727 12.6667 14.488 12.6667 14.1958V11.0083C12.6667 10.7161 12.9042 10.477 13.1944 10.477C13.4847 10.477 13.7222 10.7161 13.7222 11.0083Z" fill="black"/>
</svg>
